<svg width="12" height="16" viewBox="0 0 12 16" fill="none" xmlns="http://www.w3.org/2000/svg">
<path fill-rule="evenodd" clip-rule="evenodd" d="M10.8587 3.16248H0.953724V14.1073H10.8587V3.16248ZM0 2.20876V15.061H11.8125V2.20876H0Z" fill="#575757"/>
<path fill-rule="evenodd" clip-rule="evenodd" d="M8.91963 2.20648C9.01713 2.51445 9.06698 2.83609 9.06698 3.1602L2.74658 3.1602C2.74658 2.83609 2.79644 2.51446 2.89393 2.20648C2.92127 2.12011 2.95236 2.03482 2.98714 1.95084C3.14595 1.56743 3.37873 1.21905 3.67218 0.925601C3.96563 0.63215 4.31401 0.399371 4.69743 0.240556C5.08084 0.081741 5.49178 0 5.90678 0C6.32179 0 6.73273 0.081741 7.11614 0.240556C7.49955 0.399371 7.84793 0.63215 8.14138 0.925601C8.43483 1.21905 8.66761 1.56743 8.82643 1.95084C8.86121 2.03482 8.8923 2.12011 8.91963 2.20648ZM3.91707 2.20648C4.02479 1.98174 4.16994 1.77662 4.34657 1.59999C4.55146 1.3951 4.7947 1.23257 5.0624 1.12168C5.3301 1.0108 5.61702 0.953724 5.90678 0.953724C6.19654 0.953724 6.48346 1.0108 6.75116 1.12168C7.01887 1.23257 7.26211 1.3951 7.467 1.59999C7.64363 1.77662 7.78877 1.98174 7.89649 2.20648L3.91707 2.20648Z" fill="#575757"/>
</svg>
