<svg width="14" height="18" viewBox="0 0 14 18" fill="none" xmlns="http://www.w3.org/2000/svg">
<rect x="0.49939" y="3.58307" width="12.6799" height="13.884" stroke="white" stroke-linejoin="round"/>
<mask id="path-2-inside-1_1_16" fill="white">
<path d="M10.4994 4.18376C10.4994 3.70315 10.4047 3.22725 10.2208 2.78322C10.0369 2.33919 9.76731 1.93574 9.42746 1.5959C9.08762 1.25606 8.68417 0.986478 8.24014 0.802556C7.79611 0.618635 7.32021 0.523972 6.8396 0.523972C6.35899 0.523972 5.88308 0.618635 5.43906 0.802557C4.99503 0.986478 4.59158 1.25606 4.25174 1.5959C3.91189 1.93574 3.64232 2.33919 3.45839 2.78322C3.27447 3.22725 3.17981 3.70315 3.17981 4.18376L6.8396 4.18376H10.4994Z"/>
</mask>
<path d="M10.4994 4.18376C10.4994 3.70315 10.4047 3.22725 10.2208 2.78322C10.0369 2.33919 9.76731 1.93574 9.42746 1.5959C9.08762 1.25606 8.68417 0.986478 8.24014 0.802556C7.79611 0.618635 7.32021 0.523972 6.8396 0.523972C6.35899 0.523972 5.88308 0.618635 5.43906 0.802557C4.99503 0.986478 4.59158 1.25606 4.25174 1.5959C3.91189 1.93574 3.64232 2.33919 3.45839 2.78322C3.27447 3.22725 3.17981 3.70315 3.17981 4.18376L6.8396 4.18376H10.4994Z" stroke="white" stroke-width="2" mask="url(#path-2-inside-1_1_16)"/>
</svg>
