<svg width="22" height="22" viewBox="0 0 22 22" fill="none" xmlns="http://www.w3.org/2000/svg">
<path d="M14.5081 10.9326C14.5081 11.6001 14.3101 12.2527 13.9393 12.8077C13.5684 13.3627 13.0413 13.7953 12.4246 14.0507C11.8079 14.3062 11.1293 14.373 10.4746 14.2428C9.81994 14.1125 9.21857 13.7911 8.74657 13.3191C8.27457 12.8471 7.95313 12.2457 7.82291 11.591C7.69268 10.9364 7.75952 10.2578 8.01496 9.64106C8.27041 9.02436 8.70299 8.49726 9.25801 8.12641C9.81302 7.75556 10.4655 7.55762 11.1331 7.55762C12.0278 7.55864 12.8857 7.91455 13.5184 8.54726C14.1511 9.17998 14.507 10.0378 14.5081 10.9326ZM21.6799 6.29199V15.5732C21.6782 17.1391 21.0553 18.6404 19.9481 19.7476C18.8408 20.8549 17.3396 21.4777 15.7737 21.4795H6.49243C4.92654 21.4777 3.42529 20.8549 2.31804 19.7476C1.21079 18.6404 0.587955 17.1391 0.586182 15.5732V6.29199C0.587955 4.7261 1.21079 3.22485 2.31804 2.1176C3.42529 1.01035 4.92654 0.387516 6.49243 0.385742H15.7737C17.3396 0.387516 18.8408 1.01035 19.9481 2.1176C21.0553 3.22485 21.6782 4.7261 21.6799 6.29199ZM16.1956 10.9326C16.1956 9.93135 15.8986 8.95257 15.3424 8.12004C14.7861 7.28752 13.9954 6.63865 13.0704 6.25548C12.1453 5.87231 11.1274 5.77205 10.1454 5.96739C9.16338 6.16273 8.26133 6.64489 7.55333 7.35289C6.84533 8.06089 6.36317 8.96294 6.16783 9.94497C5.97249 10.927 6.07275 11.9449 6.45592 12.87C6.83909 13.795 7.48796 14.5857 8.32048 15.1419C9.15301 15.6982 10.1318 15.9951 11.1331 15.9951C12.4752 15.9936 13.762 15.4597 14.7111 14.5107C15.6602 13.5616 16.194 12.2748 16.1956 10.9326ZM17.8831 5.44824C17.8831 5.19793 17.8088 4.95323 17.6698 4.7451C17.5307 4.53697 17.333 4.37475 17.1018 4.27896C16.8705 4.18316 16.616 4.1581 16.3705 4.20694C16.125 4.25577 15.8995 4.37631 15.7225 4.55331C15.5455 4.73031 15.425 4.95582 15.3761 5.20133C15.3273 5.44684 15.3524 5.70131 15.4481 5.93258C15.5439 6.16384 15.7062 6.3615 15.9143 6.50057C16.1224 6.63964 16.3671 6.71387 16.6174 6.71387C16.9531 6.71387 17.275 6.58052 17.5124 6.34317C17.7497 6.10582 17.8831 5.78391 17.8831 5.44824Z" fill="white"/>
</svg>
