<svg width="240" height="51" viewBox="0 0 240 51" fill="none" xmlns="http://www.w3.org/2000/svg">
<path d="M55.5253 49.6022C54.8759 49.6387 54.0816 49.6563 53.1899 49.6292C51.2469 49.571 41.9473 49.0799 34.4825 41.891C32.3528 39.8439 31.0958 37.9428 30.2109 36.5938C28.3897 33.8079 27.6942 31.5509 25.256 24.8398C22.4145 17.0177 20.3511 10.5054 19.0116 6.0579C18.722 5.25688 17.3825 1.54814 17.2513 1.22882C17.2445 1.20852 17.2242 1.16793 17.1931 1.12057C17.0848 0.959558 16.9035 0.858078 16.6924 0.858078H16.5585C16.4746 0.858078 16.3934 0.874311 16.319 0.905432C16.2892 0.918963 16.1066 1.00015 16.0159 1.19499C16.0051 1.21934 15.9956 1.23964 15.9916 1.25588C15.0958 3.55203 14.3192 5.86441 13.6616 8.18897L4.42151 35.4789C4.29027 35.8564 4.15902 36.2352 4.02507 36.6128C3.66921 37.5274 3.16316 38.599 2.43657 39.7262C1.69509 40.8776 0.898138 41.8139 0.160719 42.5608C-0.182959 42.9072 0.060592 43.4958 0.550401 43.4958H3.95065C4.31327 43.4958 4.57982 43.1494 4.47969 42.8017C4.29974 42.1779 4.14008 41.4094 4.07242 40.5272C4.03995 40.0576 4.0413 39.4907 4.13196 38.8534C4.19014 38.4421 4.27538 38.0727 4.36874 37.7507L7.45778 28.627C10.1017 28.5431 12.6806 28.945 15.1229 29.819C19.6908 31.4549 22.6838 34.3342 24.3887 36.4612C24.3995 36.4747 24.409 36.4883 24.4198 36.5018C24.6092 36.8211 24.8054 37.1445 25.0192 37.4774C25.3561 38.001 25.6944 38.4908 26.0259 38.9454C30.1351 44.5904 36.1062 48.6564 43.6292 49.9526C48.1566 50.7306 51.6299 50.4411 52.5107 50.3369C53.6676 50.1989 54.6918 50 55.5537 49.7956C55.6688 49.7686 55.6471 49.5967 55.5267 49.6035L55.5253 49.6022ZM20.5514 28.0235C21.0831 29.5335 21.8977 31.624 23.0978 34.0352C21.2793 32.2627 18.7369 30.3914 15.3516 29.1777C12.9066 28.3022 10.329 27.8896 7.68781 27.9437L14.1771 8.7789C16.3028 15.1938 18.4257 21.6086 20.5514 28.0222V28.0235ZM14.0513 8.40275L14.0242 8.39328L14.0364 8.35675C14.0418 8.37163 14.0458 8.38652 14.0513 8.4014V8.40275Z" fill="black"/>
<path d="M210.142 36.813C208.864 37.8914 207.116 39.0997 204.879 40.0062C197.014 43.1954 186.254 41.4283 180.69 34.2544C178.711 31.7025 177.329 28.5796 176.803 25.0062C175.213 15.7783 178.803 5.23929 188.587 2.27202C193.159 0.885133 200.165 0.794477 204.33 5.39624C205.708 6.91979 206.474 8.61247 206.906 10.0684C207.086 10.6745 207.957 10.6515 208.098 10.0345C208.136 9.87218 208.171 9.7044 208.206 9.5312C208.279 9.15911 208.769 7.13764 208.507 6.10931C207.875 3.63862 202.694 2.00006 200.449 1.34111C194.609 -0.214908 188.42 0.360147 183.081 2.9472C164.058 12.148 167.962 40.7883 189.838 43.9545C196.022 44.8488 205.729 43.4417 210.447 37.1256L210.46 37.108C210.617 36.8983 210.343 36.6398 210.142 36.8089V36.813Z" fill="black"/>
<path d="M238.657 38.5328C237.76 39.5747 236.39 40.8506 234.445 41.8126C233.721 42.1712 233.02 42.4337 232.372 42.6272C232.32 42.6421 232.268 42.6556 232.216 42.6705C232.035 42.7057 231.84 42.7381 231.633 42.7638C231.426 42.7895 231.23 42.8058 231.046 42.8153H224.21C223.998 42.8139 223.703 42.7828 223.381 42.6529C223.36 42.6448 223.343 42.6353 223.322 42.6258C223.007 42.4756 222.688 42.2754 222.389 42.0088C221.906 41.5772 221.66 41.1388 221.469 40.7938C221.469 40.7938 221.413 40.6909 221.36 40.5813C221.055 39.9495 220.815 38.3867 220.688 37.3732C220.62 36.8388 220.589 36.3016 220.589 35.7631C220.589 32.1342 220.591 27.6718 220.592 24.1619C220.565 23.9928 220.412 22.9131 221.133 22.0836C221.378 21.8008 221.672 21.6114 221.961 21.4802C222.083 21.4314 222.237 21.3827 222.421 21.3516C222.573 21.3259 222.705 21.3205 222.822 21.3218H228.64C228.798 21.3218 228.978 21.334 229.177 21.3638C229.333 21.3881 229.472 21.4206 229.601 21.4558C229.644 21.468 229.686 21.4802 229.729 21.4937C229.736 21.495 229.741 21.4977 229.748 21.4991C230.333 21.6845 230.99 21.9835 231.641 22.4652C232.268 22.9293 232.733 23.4462 233.073 23.9265C233.311 24.2607 233.834 24.0997 233.834 23.6884V18.3573C233.834 17.95 233.315 17.7849 233.077 18.1137C232.717 18.6103 232.22 19.1515 231.54 19.6251C230.937 20.0446 230.337 20.3111 229.797 20.4816C229.613 20.5276 229.406 20.5695 229.177 20.5993C228.978 20.625 228.793 20.6386 228.624 20.6426H223.129C223.003 20.6467 222.846 20.6426 222.67 20.6115C222.528 20.5871 222.402 20.552 222.297 20.5154C221.818 20.3274 221.344 20.0324 221.018 19.552C220.574 18.8985 220.588 18.1814 220.592 17.9148C220.619 16.1504 220.603 10.7003 220.622 3.28553C220.658 3.06769 220.803 2.39115 221.405 1.84857C221.462 1.79716 221.52 1.75521 221.578 1.71192C221.653 1.66185 221.719 1.62938 221.768 1.60773C222.005 1.50625 222.236 1.50084 222.467 1.49543H231.048C231.232 1.5049 231.429 1.52113 231.636 1.54684C231.848 1.57255 232.046 1.60638 232.231 1.64291C232.278 1.65644 232.327 1.66862 232.374 1.68215C233.024 1.87564 233.723 2.13948 234.447 2.49669C236.393 3.45872 237.762 4.73465 238.659 5.77651C238.948 6.11207 239.497 5.91047 239.497 5.46801C239.497 5.36518 239.497 5.26235 239.497 5.15817C239.497 2.75919 237.553 0.814835 235.155 0.814835H226.372H220.277V0.818894L213.729 0.810776C213.315 0.810776 213.081 1.2857 213.337 1.61179C213.648 2.00823 213.974 2.48722 214.27 3.05145C215.479 5.3503 215.392 7.55985 215.392 8.44069C215.387 17.9676 215.38 27.4945 215.375 37.0214C215.375 37.6181 215.296 39.1133 214.518 40.7951C214.161 41.5664 213.736 42.1955 213.342 42.6854C213.082 43.0101 213.315 43.4904 213.731 43.4904C215.913 43.4904 218.096 43.4904 220.278 43.4904H234.301H235.155C237.553 43.4904 239.497 41.5461 239.497 39.1471C239.497 39.0443 239.497 38.9414 239.497 38.8372C239.497 38.3948 238.949 38.1932 238.659 38.5287L238.657 38.5328Z" fill="black"/>
<path d="M138.726 22.2785V22.2176C138.945 9.9047 130.253 2.53863 120.448 0.858127C119.13 0.609164 117.771 0.476562 116.382 0.476562C116.111 0.476562 115.842 0.483327 115.574 0.492799C106.406 0.678168 97.3779 5.78192 94.5717 16.3818C92.1997 25.8533 95.692 36.1974 104.274 40.8844C106.622 42.2226 109.133 43.1156 111.691 43.5973C113.203 43.9302 114.773 44.1074 116.383 44.1074C118.656 44.1074 120.848 43.757 122.91 43.1102C131.729 40.6395 138.871 33.2586 138.728 22.2798L138.726 22.2785ZM103.469 5.67774C103.827 5.34894 104.177 5.06345 104.509 4.81448C107.005 3.11368 109.883 1.93246 112.984 1.42912C113.318 1.39394 113.674 1.36823 114.05 1.3547C114.481 1.33982 114.884 1.34388 115.261 1.36011C117.517 1.54413 119.862 2.19089 122.204 3.35723C134.825 9.26741 138.127 31.5835 127.433 39.9968C127.339 40.0712 127.244 40.1443 127.147 40.2147C127.144 40.2174 127.143 40.2187 127.143 40.2187C127.139 40.2228 127.133 40.2255 127.128 40.2296C127.179 40.1646 127.235 40.101 127.283 40.032C127.492 39.733 127.665 39.4164 127.743 39.0564C127.883 38.4219 127.82 37.8049 127.55 37.2163C127.205 36.468 126.62 35.9958 125.827 35.7888C125.321 35.6575 124.819 35.7076 124.33 35.8862C124.032 35.9958 123.756 36.1446 123.496 36.3422C123.48 36.2556 123.466 36.1771 123.451 36.0986C123.251 35.1014 122.649 34.4466 121.721 34.0718C121.591 34.019 121.449 33.9892 121.311 33.9608C120.918 33.8823 120.525 33.8823 120.138 33.9919C119.292 34.2314 118.759 34.8186 118.411 35.5926C118.231 35.9945 118.17 36.4301 118.161 36.8712C118.146 37.5437 118.271 38.1959 118.463 38.8372C118.664 39.5097 118.939 40.1524 119.257 40.7775C119.645 41.5393 120.089 42.2659 120.587 42.96H120.584C120.51 42.9709 120.437 42.983 120.362 42.9939C106.705 44.6892 98.4265 31.2939 98.7946 18.4263V18.36C98.7648 13.3888 100.275 9.30124 102.763 6.37321C102.977 6.14589 103.211 5.91181 103.468 5.67503L103.469 5.67774Z" fill="black"/>
<path d="M168.787 1.06111H164.724C164.272 1.06111 164.016 1.57527 164.286 1.93924C164.807 2.6469 165.367 3.5778 165.794 4.73873C166.103 5.57492 166.276 6.35429 166.372 7.02541C166.386 7.17289 166.394 7.31226 166.398 7.44621V34.1868C153.56 13.2914 148.394 5.06211 147.224 3.3992C147.21 3.38161 147.206 3.37484 147.206 3.37484C146.348 2.17603 145.056 1.37908 143.629 1.13958C143.328 1.08817 143.02 1.06246 142.71 1.06246H140.209C139.978 1.06246 139.809 1.2343 139.782 1.4332C139.766 1.53333 139.784 1.63887 139.849 1.73358C140.522 2.72673 141.209 3.98237 141.73 5.50321C141.73 5.50321 141.731 5.50546 141.733 5.50997C141.815 5.75623 141.888 5.99573 141.956 6.23116C141.986 6.34617 142.013 6.47606 142.032 6.62355C142.051 6.7805 142.056 6.92257 142.055 7.04706V37.5086C142.052 37.6804 142.04 37.8698 142.016 38.0714C141.987 38.2987 141.947 38.5017 141.901 38.6871C141.776 39.1606 141.607 39.6396 141.369 40.2309C140.935 41.3174 140.4 42.2023 139.901 42.8924C139.636 43.2591 139.891 43.7678 140.345 43.7678H144.408C144.86 43.7678 145.116 43.2537 144.846 42.8897C144.325 42.182 143.765 41.2511 143.338 40.0902C143.029 39.254 142.856 38.4746 142.76 37.8035C142.746 37.656 142.738 37.5167 142.734 37.3827V6.39623C150.387 18.7429 158.04 31.0883 165.693 43.4336C165.774 43.554 165.888 43.6488 166.02 43.7056C166.023 43.7056 166.023 43.7083 166.024 43.7083C166.115 43.7462 166.214 43.7665 166.318 43.7665C166.662 43.7665 166.951 43.5405 167.045 43.228C167.065 43.1603 167.076 43.0859 167.076 43.0101V7.31902C167.078 7.14718 167.091 6.95775 167.115 6.75615C167.143 6.52883 167.184 6.32587 167.23 6.1405C167.354 5.66693 167.524 5.18795 167.762 4.59666C168.196 3.51015 168.731 2.62525 169.23 1.93519C169.495 1.56851 169.239 1.05975 168.786 1.05975L168.787 1.06111Z" fill="black"/>
<path d="M91.1479 1.06109H87.0846C86.6327 1.06109 86.377 1.57525 86.6462 1.93922C87.1672 2.64688 87.7273 3.57778 88.1549 4.73871C88.4621 5.57626 88.6366 6.35427 88.7313 7.02403C88.7448 7.17287 88.7543 7.31088 88.7584 7.44484V34.1868C75.9205 13.2914 70.7545 5.06209 69.5841 3.39918C69.5706 3.38159 69.5665 3.37482 69.5665 3.37482C68.9942 2.57381 68.227 1.9514 67.3543 1.55631C67.3475 1.27622 67.1256 1.02049 66.8049 1.02049H62.7417C62.6578 1.02049 62.5807 1.03808 62.513 1.06785C62.3114 1.09221 62.1693 1.25322 62.1436 1.43453C62.1274 1.53466 62.1463 1.6402 62.2113 1.73491C62.2153 1.74167 62.2208 1.75115 62.2275 1.75791C62.2438 1.80527 62.2708 1.85263 62.3019 1.89863C62.3601 1.97982 62.4224 2.061 62.4805 2.1503C63.0191 2.99597 63.5481 4.01211 63.9811 5.19334C64.1867 5.84281 64.3139 6.44628 64.3911 6.98344C64.4046 7.13093 64.4114 7.27029 64.4154 7.40424V34.1462C51.5776 13.2508 46.4116 5.0215 45.2412 3.35858C45.2276 3.341 45.2236 3.33423 45.2236 3.33423C44.3657 2.13542 43.0736 1.33846 41.6461 1.09897C41.3457 1.04756 41.0372 1.02185 40.7273 1.02185H38.2269C37.9955 1.02185 37.8264 1.19368 37.7993 1.39258C37.7831 1.49271 37.802 1.59825 37.867 1.69296C38.5394 2.68611 39.2268 3.94176 39.7477 5.4626C39.7477 5.4626 39.7486 5.46485 39.7504 5.46936C39.8343 5.71562 39.906 5.95376 39.975 6.19055C40.0048 6.30556 40.0319 6.43545 40.0495 6.58158C40.0698 6.73718 40.0738 6.88061 40.0738 7.00509V37.4666H40.0711C40.0684 37.6384 40.0576 37.8265 40.0332 38.0295C40.0062 38.2554 39.9629 38.4597 39.9182 38.6451C39.7937 39.1187 39.626 39.5977 39.3892 40.1876C38.9548 41.2741 38.4204 42.159 37.9211 42.8491C37.6559 43.2158 37.9116 43.7245 38.3649 43.7245H42.4281C42.8801 43.7245 43.1358 43.2103 42.8665 42.8464C42.3456 42.1387 41.7854 41.2078 41.3579 40.0469C41.048 39.2093 40.8762 38.4313 40.7788 37.7616C40.7652 37.6127 40.7585 37.4747 40.7544 37.3408V6.35427C48.1191 18.2396 55.4866 30.1208 62.8513 42.0048C63.1381 42.4662 63.4236 42.9303 63.7105 43.3917C63.7917 43.5121 63.9053 43.6068 64.0379 43.6636C64.0406 43.6636 64.0406 43.6663 64.042 43.6663C64.1326 43.7042 64.2314 43.7245 64.3356 43.7245C64.6793 43.7245 64.9688 43.4985 65.0622 43.186C65.0825 43.1183 65.0933 43.0439 65.0933 42.9682V7.27706C65.0974 7.10522 65.1095 6.91714 65.1339 6.71418C65.1434 6.64382 65.1515 6.57617 65.1637 6.50987C72.7936 18.8187 80.4235 31.1275 88.0521 43.4336C88.1333 43.554 88.2469 43.6487 88.3795 43.7056C88.3822 43.7056 88.3822 43.7083 88.3836 43.7083C88.4742 43.7462 88.573 43.7665 88.6772 43.7665C89.0209 43.7665 89.3104 43.5405 89.4038 43.2279C89.4241 43.1603 89.4349 43.0859 89.4349 43.0101V7.319C89.4376 7.14716 89.4484 6.95909 89.4728 6.75613C89.5026 6.53017 89.5431 6.32585 89.5878 6.14048C89.7123 5.66826 89.8814 5.18793 90.1195 4.59799C90.5539 3.51148 91.0883 2.62658 91.5876 1.93652C91.8528 1.56984 91.5971 1.06109 91.1438 1.06109H91.1479Z" fill="black"/>
</svg>
