<svg width="145" height="30" viewBox="0 0 145 30" fill="none" xmlns="http://www.w3.org/2000/svg">
<path d="M33.7434 29.4754C33.3537 29.4973 32.8772 29.5078 32.3422 29.4916C31.1764 29.4567 25.5966 29.162 21.1177 24.8487C19.8399 23.6204 19.0857 22.4798 18.5548 21.6704C17.462 19.9988 17.0447 18.6446 15.5818 14.6179C13.8769 9.9247 12.6389 6.01733 11.8352 3.34882C11.6614 2.86821 10.8577 0.642964 10.779 0.45137C10.7749 0.439193 10.7627 0.414839 10.7441 0.386424C10.6791 0.289816 10.5703 0.228928 10.4437 0.228928H10.3633C10.313 0.228928 10.2643 0.238668 10.2196 0.25734C10.2018 0.265458 10.0922 0.31417 10.0378 0.431074C10.0313 0.445687 10.0256 0.457866 10.0232 0.467608C9.48572 1.8453 9.01972 3.23273 8.62517 4.62746L3.08113 21.0014C3.00238 21.2279 2.92363 21.4552 2.84326 21.6817C2.62975 22.2305 2.32612 22.8735 1.89016 23.5498C1.44528 24.2406 0.967106 24.8024 0.524654 25.2506C0.318447 25.4584 0.464578 25.8115 0.758463 25.8115H2.79861C3.01618 25.8115 3.17612 25.6037 3.11604 25.3951C3.00806 25.0208 2.91227 24.5597 2.87168 24.0304C2.85219 23.7487 2.853 23.4085 2.9074 23.0261C2.94231 22.7793 2.99345 22.5577 3.04947 22.3645L4.90289 16.8903C6.48922 16.8399 8.03659 17.0811 9.50195 17.6055C12.2427 18.587 14.0385 20.3146 15.0614 21.5908C15.0679 21.5989 15.0736 21.607 15.0801 21.6152C15.1937 21.8068 15.3115 22.0008 15.4397 22.2005C15.6419 22.5147 15.8448 22.8086 16.0437 23.0813C18.5093 26.4683 22.0919 28.9079 26.6057 29.6856C29.3222 30.1524 31.4061 29.9787 31.9346 29.9162C32.6288 29.8334 33.2433 29.7141 33.7605 29.5915C33.8295 29.5752 33.8165 29.4721 33.7442 29.4762L33.7434 29.4754ZM12.759 16.5282C13.0781 17.4342 13.5668 18.6885 14.2869 20.1352C13.1958 19.0717 11.6704 17.9489 9.63915 17.2207C8.17216 16.6954 6.62561 16.4478 5.04091 16.4803L8.93448 4.98142C10.2099 8.83034 11.4836 12.6793 12.759 16.5274V16.5282ZM8.85898 4.75573L8.84274 4.75005L8.85005 4.72813C8.8533 4.73706 8.85573 4.74599 8.85898 4.75492V4.75573Z" fill="white"/>
<path d="M126.514 21.8019C125.746 22.4489 124.698 23.1739 123.356 23.7178C118.636 25.6313 112.181 24.571 108.842 20.2667C107.655 18.7356 106.826 16.8618 106.51 14.7178C105.556 9.18104 107.71 2.85764 113.58 1.07728C116.323 0.245142 120.527 0.190749 123.026 2.95181C123.853 3.86594 124.313 4.88155 124.572 5.75508C124.68 6.11879 125.203 6.10499 125.287 5.73479C125.31 5.63737 125.331 5.5367 125.352 5.43279C125.396 5.20953 125.69 3.99665 125.532 3.37965C125.153 1.89723 122.044 0.914096 120.698 0.518731C117.194 -0.414882 113.48 -0.0698491 110.277 1.48238C98.8633 7.00288 101.205 24.187 114.331 26.0867C118.041 26.6234 123.865 25.7791 126.696 21.9894L126.704 21.9789C126.799 21.853 126.634 21.698 126.514 21.7994V21.8019Z" fill="white"/>
<path d="M143.622 22.8337C143.084 23.4589 142.263 24.2244 141.095 24.8016C140.661 25.0168 140.24 25.1743 139.851 25.2904C139.821 25.2993 139.789 25.3074 139.758 25.3163C139.649 25.3375 139.532 25.3569 139.408 25.3724C139.284 25.3878 139.166 25.3975 139.056 25.4032H134.954C134.827 25.4024 134.65 25.3837 134.457 25.3058C134.445 25.3009 134.434 25.2952 134.422 25.2896C134.233 25.1994 134.041 25.0793 133.862 24.9194C133.572 24.6604 133.424 24.3973 133.31 24.1903C133.31 24.1903 133.276 24.1286 133.245 24.0629C133.061 23.6837 132.917 22.7461 132.841 22.138C132.801 21.8173 132.782 21.495 132.782 21.1719C132.782 18.9946 132.783 16.3171 132.784 14.2112C132.767 14.1097 132.676 13.4619 133.108 12.9642C133.255 12.7946 133.431 12.6809 133.605 12.6022C133.678 12.5729 133.771 12.5437 133.881 12.525C133.972 12.5096 134.052 12.5064 134.121 12.5072H137.612C137.707 12.5072 137.815 12.5145 137.935 12.5323C138.028 12.547 138.112 12.5664 138.189 12.5875C138.215 12.5949 138.24 12.6022 138.266 12.6103C138.27 12.6111 138.273 12.6127 138.277 12.6135C138.628 12.7247 139.022 12.9042 139.413 13.1932C139.789 13.4716 140.068 13.7818 140.272 14.07C140.415 14.2705 140.729 14.1739 140.729 13.9271V10.7284C140.729 10.4841 140.417 10.385 140.274 10.5823C140.058 10.8803 139.76 11.205 139.352 11.4891C138.991 11.7408 138.63 11.9007 138.306 12.003C138.196 12.0306 138.072 12.0558 137.935 12.0737C137.815 12.0891 137.704 12.0972 137.603 12.0996H134.306C134.23 12.1021 134.136 12.0996 134.03 12.081C133.945 12.0663 133.87 12.0452 133.806 12.0233C133.519 11.9105 133.235 11.7335 133.039 11.4453C132.773 11.0532 132.781 10.6229 132.784 10.463C132.8 9.40433 132.79 6.13425 132.801 1.68538C132.823 1.55468 132.91 1.14876 133.271 0.823209C133.306 0.792359 133.34 0.767194 133.375 0.741215C133.42 0.711177 133.46 0.691691 133.489 0.678702C133.631 0.617814 133.77 0.614568 133.909 0.611321H139.057C139.168 0.617003 139.286 0.626746 139.41 0.642171C139.537 0.657596 139.656 0.677891 139.767 0.699811C139.795 0.707929 139.825 0.715236 139.853 0.723355C140.243 0.839447 140.662 0.997755 141.097 1.21208C142.264 1.7893 143.086 2.55486 143.624 3.17997C143.797 3.38131 144.127 3.26035 144.127 2.99487C144.127 2.93317 144.127 2.87148 144.127 2.80897C144.127 1.36958 142.96 0.202966 141.521 0.202966H136.252H132.594V0.205402L128.666 0.200531C128.417 0.200531 128.277 0.485485 128.43 0.681137C128.617 0.919006 128.813 1.2064 128.991 1.54493C129.716 2.92425 129.664 4.24998 129.664 4.77848C129.66 10.4946 129.656 16.2108 129.653 21.9269C129.653 22.2849 129.606 23.182 129.139 24.1911C128.925 24.6539 128.67 25.0314 128.434 25.3253C128.278 25.5201 128.417 25.8083 128.667 25.8083C129.976 25.8083 131.286 25.8083 132.595 25.8083H141.009H141.521C142.96 25.8083 144.127 24.6417 144.127 23.2023C144.127 23.1406 144.127 23.0789 144.127 23.0164C144.127 22.7509 143.798 22.63 143.624 22.8313L143.622 22.8337Z" fill="white"/>
<path d="M83.664 13.0811V13.0446C83.7955 5.65688 78.5803 1.23724 72.6969 0.228939C71.9062 0.0795607 71.0911 0 70.2573 0C70.095 0 69.9334 0.00405879 69.7727 0.00974166C64.2717 0.120963 58.8551 3.18321 57.1713 9.54315C55.7482 15.226 57.8435 21.4325 62.993 24.2447C64.4016 25.0476 65.9083 25.5834 67.4427 25.8725C68.3503 26.0722 69.2921 26.1785 70.2582 26.1785C71.622 26.1785 72.9372 25.9683 74.1745 25.5802C79.466 24.0978 83.7509 19.6692 83.6648 13.082L83.664 13.0811ZM62.51 3.1207C62.7243 2.92343 62.9346 2.75213 63.1335 2.60275C64.6313 1.58227 66.3581 0.873538 68.2188 0.571534C68.4193 0.550427 68.6329 0.535 68.8585 0.526882C69.1167 0.517952 69.3586 0.520388 69.5851 0.53013C70.9385 0.64054 72.3454 1.0286 73.7507 1.7284C81.3235 5.27451 83.3044 18.6641 76.8884 23.7122C76.8316 23.7568 76.7748 23.8006 76.7163 23.8429C76.7147 23.8445 76.7139 23.8453 76.7139 23.8453C76.7114 23.8477 76.7082 23.8494 76.705 23.8518C76.7358 23.8128 76.7691 23.7747 76.7983 23.7333C76.9233 23.5538 77.0273 23.3639 77.0743 23.1479C77.158 22.7672 77.1206 22.397 76.9582 22.0438C76.7512 21.5949 76.4005 21.3116 75.9248 21.1873C75.6212 21.1086 75.32 21.1386 75.0261 21.2458C74.8475 21.3115 74.6819 21.4009 74.526 21.5194C74.5162 21.4674 74.5081 21.4203 74.4992 21.3732C74.379 20.7749 74.0178 20.382 73.4608 20.1571C73.3829 20.1255 73.2977 20.1076 73.2149 20.0905C72.9794 20.0435 72.7432 20.0435 72.511 20.1092C72.0036 20.2529 71.6837 20.6053 71.4751 21.0696C71.3671 21.3107 71.3306 21.5721 71.3249 21.8368C71.316 22.2403 71.3907 22.6316 71.5059 23.0164C71.6269 23.4199 71.7917 23.8055 71.9825 24.1806C72.2155 24.6377 72.4818 25.0736 72.7805 25.4901H72.7789C72.7343 25.4966 72.6904 25.5039 72.6458 25.5104C64.4511 26.5276 59.4843 18.4904 59.7051 10.7698V10.7301C59.6872 7.74737 60.5932 5.2948 62.0862 3.53799C62.2145 3.4016 62.3549 3.26115 62.5092 3.11908L62.51 3.1207Z" fill="white"/>
<path d="M101.701 0.350727H99.2626C98.9914 0.350727 98.838 0.659225 98.9996 0.877609C99.3121 1.3022 99.6482 1.86074 99.9048 2.5573C100.09 3.05902 100.194 3.52663 100.251 3.92931C100.26 4.0178 100.264 4.10142 100.267 4.18179V20.2261C92.5641 7.68893 89.4645 2.75133 88.7623 1.75358C88.7542 1.74303 88.7517 1.73897 88.7517 1.73897C88.237 1.01968 87.4617 0.541508 86.6052 0.397813C86.425 0.366963 86.2399 0.351537 86.054 0.351537H84.5537C84.4149 0.351537 84.3134 0.454642 84.2972 0.573983C84.2874 0.634059 84.2988 0.697382 84.3378 0.754211C84.7413 1.3501 85.1537 2.10348 85.4662 3.01599C85.4662 3.01599 85.4668 3.01734 85.4679 3.02005C85.5174 3.1678 85.5612 3.3115 85.6018 3.45276C85.6197 3.52176 85.6359 3.5997 85.6473 3.68819C85.6586 3.78236 85.6619 3.86761 85.6611 3.9423V22.2192C85.6594 22.3223 85.6521 22.436 85.6375 22.5569C85.6205 22.6933 85.5961 22.8151 85.5685 22.9263C85.4938 23.2104 85.3924 23.4978 85.2495 23.8526C84.9889 24.5045 84.6682 25.0355 84.3686 25.4495C84.2095 25.6695 84.3629 25.9748 84.6349 25.9748H87.0729C87.344 25.9748 87.4974 25.6663 87.3359 25.4479C87.0233 25.0233 86.6872 24.4647 86.4307 23.7682C86.2456 23.2665 86.1417 22.7989 86.084 22.3962C86.0759 22.3077 86.0711 22.2241 86.0686 22.1437V3.5518C90.6604 10.9598 95.2521 18.367 99.8439 25.7742C99.8926 25.8465 99.9608 25.9033 100.04 25.9374C100.042 25.9374 100.042 25.939 100.043 25.939C100.097 25.9618 100.156 25.9739 100.219 25.9739C100.425 25.9739 100.599 25.8384 100.655 25.6508C100.667 25.6102 100.674 25.5656 100.674 25.5201V4.10548C100.675 4.00237 100.683 3.88872 100.697 3.76775C100.714 3.63136 100.739 3.50959 100.766 3.39836C100.841 3.11422 100.942 2.82683 101.085 2.47206C101.346 1.82015 101.666 1.28921 101.966 0.875174C102.125 0.655166 101.972 0.349915 101.7 0.349915L101.701 0.350727Z" fill="white"/>
<path d="M55.1168 0.350712H52.6789C52.4077 0.350712 52.2543 0.659209 52.4158 0.877593C52.7284 1.30218 53.0645 1.86073 53.321 2.55729C53.5053 3.05981 53.6101 3.52662 53.6669 3.92848C53.675 4.01778 53.6807 4.10059 53.6831 4.18096V20.2261C45.9804 7.68891 42.8808 2.75132 42.1786 1.75357C42.1705 1.74301 42.168 1.73895 42.168 1.73895C41.8246 1.25834 41.3643 0.884901 40.8407 0.647844C40.8366 0.479794 40.7035 0.326355 40.5111 0.326355H38.0731C38.0228 0.326355 37.9765 0.336909 37.9359 0.35477C37.8149 0.369383 37.7297 0.465991 37.7143 0.574777C37.7045 0.634853 37.7159 0.698177 37.7549 0.755005C37.7573 0.759064 37.7606 0.764748 37.7646 0.768808C37.7744 0.797222 37.7906 0.825637 37.8093 0.853239C37.8442 0.90195 37.8815 0.950659 37.9164 1.00424C38.2395 1.51164 38.557 2.12133 38.8168 2.83006C38.9402 3.21974 39.0165 3.58182 39.0627 3.90412C39.0709 3.99261 39.0749 4.07623 39.0774 4.1566V20.2018C31.3746 7.66456 28.275 2.72696 27.5728 1.72921C27.5647 1.71866 27.5623 1.7146 27.5623 1.7146C27.0475 0.99531 26.2722 0.517138 25.4158 0.373443C25.2355 0.342593 25.0504 0.327168 24.8645 0.327168H23.3642C23.2254 0.327168 23.1239 0.43027 23.1077 0.54961C23.098 0.609686 23.1093 0.67301 23.1483 0.729838C23.5518 1.32573 23.9642 2.07911 24.2767 2.99162C24.2767 2.99162 24.2773 2.99297 24.2784 2.99568C24.3287 3.14343 24.3717 3.28632 24.4131 3.42839C24.431 3.49739 24.4472 3.57533 24.4578 3.66301C24.47 3.75637 24.4724 3.84242 24.4724 3.91711V22.194H24.4708C24.4691 22.2971 24.4627 22.41 24.448 22.5317C24.4318 22.6673 24.4058 22.7899 24.379 22.9011C24.3043 23.1853 24.2037 23.4727 24.0616 23.8266C23.801 24.4785 23.4803 25.0095 23.1808 25.4235C23.0216 25.6435 23.1751 25.9488 23.447 25.9488H25.885C26.1561 25.9488 26.3096 25.6403 26.148 25.4219C25.8355 24.9973 25.4994 24.4387 25.2428 23.7422C25.0569 23.2397 24.9538 22.7729 24.8954 22.371C24.8872 22.2817 24.8832 22.1989 24.8808 22.1185V3.52662C29.2996 10.6578 33.72 17.7866 38.1389 24.9169C38.311 25.1938 38.4823 25.4722 38.6544 25.7491C38.7031 25.8213 38.7713 25.8781 38.8509 25.9122C38.8525 25.9122 38.8525 25.9139 38.8533 25.9139C38.9077 25.9366 38.9669 25.9488 39.0295 25.9488C39.2357 25.9488 39.4094 25.8132 39.4654 25.6257C39.4776 25.5851 39.4841 25.5404 39.4841 25.4949V4.08029C39.4865 3.97719 39.4938 3.86435 39.5084 3.74257C39.5141 3.70035 39.519 3.65976 39.5263 3.61998C44.1043 11.0053 48.6822 18.3906 53.2593 25.7742C53.3081 25.8465 53.3763 25.9033 53.4558 25.9374C53.4574 25.9374 53.4574 25.939 53.4583 25.939C53.5126 25.9618 53.5719 25.9739 53.6344 25.9739C53.8406 25.9739 54.0144 25.8384 54.0704 25.6508C54.0826 25.6102 54.089 25.5656 54.089 25.5201V4.10546C54.0907 4.00236 54.0972 3.88951 54.1118 3.76774C54.1296 3.63216 54.154 3.50957 54.1808 3.39835C54.2555 3.11502 54.357 2.82682 54.4998 2.47285C54.7604 1.82095 55.0811 1.29001 55.3807 0.875971C55.5398 0.655963 55.3864 0.350712 55.1144 0.350712H55.1168Z" fill="white"/>
</svg>
