<svg width="14" height="15" viewBox="0 0 14 15" fill="none" xmlns="http://www.w3.org/2000/svg">
<path fill-rule="evenodd" clip-rule="evenodd" d="M6.33896 1.33017C3.32208 1.33017 0.844874 3.75497 0.844874 6.78378C0.844874 9.81258 3.32208 12.2374 6.33896 12.2374C7.71774 12.2374 8.9838 11.7309 9.95218 10.8918C9.96642 10.8091 10.0082 10.7299 10.0771 10.6675C10.1412 10.6094 10.2197 10.5742 10.3012 10.5617C11.2484 9.58415 11.833 8.25524 11.833 6.78378C11.833 3.75497 9.35583 1.33017 6.33896 1.33017ZM11.0096 11.0116C12.0469 9.89601 12.6779 8.40926 12.6779 6.78378C12.6779 3.34704 9.85729 0.530487 6.33896 0.530487C2.82062 0.530487 0 3.34704 0 6.78378C0 10.2205 2.82062 13.0371 6.33896 13.0371C7.89373 13.0371 9.31225 12.4871 10.4113 11.5766L13.2723 14.4071C13.4336 14.5666 13.701 14.5722 13.8696 14.4196C14.0382 14.2669 14.0441 14.0138 13.8828 13.8542L11.0096 11.0116Z" fill="#575757"/>
</svg>
