<svg width="18" height="17" viewBox="0 0 18 17" fill="none" xmlns="http://www.w3.org/2000/svg">
<path d="M8.6193 1.605C8.76897 1.14434 9.42068 1.14434 9.57035 1.605L10.8857 5.65313C11.0865 6.27116 11.6624 6.6896 12.3123 6.6896H16.5687C17.0531 6.6896 17.2545 7.30941 16.8626 7.59411L13.4191 10.096C12.8933 10.478 12.6733 11.155 12.8742 11.773L14.1895 15.8212C14.3391 16.2818 13.8119 16.6649 13.42 16.3802L9.9765 13.8783C9.45077 13.4963 8.73888 13.4963 8.21315 13.8783L4.7696 16.3802C4.37774 16.6649 3.8505 16.2818 4.00018 15.8212L5.3155 11.773C5.51631 11.155 5.29632 10.478 4.77059 10.096L1.32704 7.59411C0.935185 7.30941 1.13657 6.6896 1.62093 6.6896L5.87739 6.6896C6.52723 6.6896 7.10317 6.27116 7.30398 5.65313L8.6193 1.605Z" stroke="white"/>
</svg>
