<svg width="16" height="15" viewBox="0 0 16 15" fill="none" xmlns="http://www.w3.org/2000/svg">
<path fill-rule="evenodd" clip-rule="evenodd" d="M8.3125 2.35563L7.26272 5.51669C7.08585 6.04926 6.57859 6.40984 6.00624 6.40984H2.60907L5.35744 8.36348C5.82048 8.69262 6.01424 9.27605 5.83737 9.80862L4.78759 12.9697L7.53596 11.016C7.999 10.6869 8.626 10.6869 9.08904 11.016L11.8374 12.9697L10.7876 9.80862C10.6108 9.27605 10.8045 8.69262 11.2676 8.36348L14.0159 6.40984H10.6188C10.0464 6.40984 9.53915 6.04926 9.36229 5.51669L8.3125 2.35563ZM8.73133 0.828203C8.5995 0.431249 8.0255 0.431248 7.89368 0.828202L6.42507 5.2504C6.36611 5.42793 6.19703 5.54812 6.00624 5.54812H1.25372C0.827118 5.54812 0.649744 6.08222 0.994874 6.32755L4.83974 9.06062C4.99409 9.17033 5.05868 9.36481 4.99972 9.54233L3.53111 13.9645C3.39928 14.3615 3.86365 14.6916 4.20878 14.4462L8.05365 11.7132C8.208 11.6035 8.417 11.6035 8.57135 11.7132L12.4162 14.4462C12.7613 14.6916 13.2257 14.3615 13.0939 13.9645L11.6253 9.54233C11.5663 9.36481 11.6309 9.17033 11.7853 9.06062L15.6301 6.32755C15.9753 6.08222 15.7979 5.54812 15.3713 5.54812H10.6188C10.428 5.54812 10.2589 5.42793 10.1999 5.2504L8.73133 0.828203Z" fill="#575757"/>
</svg>
