<svg width="33" height="32" viewBox="0 0 33 32" fill="none" xmlns="http://www.w3.org/2000/svg">
<path d="M16.0245 1.08156C16.1741 0.620902 16.8259 0.620908 16.9755 1.08156L20.178 10.9377C20.3788 11.5557 20.9547 11.9742 21.6046 11.9742H31.9679C32.4523 11.9742 32.6537 12.594 32.2618 12.8787L23.8777 18.9701C23.352 19.3521 23.132 20.0291 23.3328 20.6472L26.5352 30.5033C26.6849 30.9639 26.1577 31.347 25.7658 31.0623L17.3817 24.9709C16.8559 24.5889 16.1441 24.5889 15.6183 24.9709L7.23419 31.0623C6.84234 31.347 6.3151 30.9639 6.46477 30.5033L9.66722 20.6472C9.86804 20.0291 9.64805 19.3521 9.12232 18.9701L0.73819 12.8787C0.346331 12.594 0.547722 11.9742 1.03208 11.9742H11.3954C12.0453 11.9742 12.6212 11.5557 12.822 10.9377L16.0245 1.08156Z" stroke="#797878"/>
</svg>
