<svg width="22" height="19" viewBox="0 0 22 19" fill="none" xmlns="http://www.w3.org/2000/svg">
<g clip-path="url(#clip0_1_147)">
<path d="M21.9588 0.910559C21.8793 0.683286 21.7846 0.61965 21.6379 0.565104C21.3171 0.443892 20.7732 0.62571 20.7732 0.62571C20.7732 0.62571 1.4957 7.49541 0.395704 8.25601C0.157371 8.41965 0.0779267 8.51359 0.04126 8.62571C-0.148184 9.16813 0.444593 9.40753 0.444593 9.40753L5.41293 11.0136C5.41293 11.0136 5.59932 11.0409 5.66348 10.9984C6.79404 10.2893 17.0363 3.87723 17.626 3.66207C17.7207 3.6348 17.7879 3.6651 17.7696 3.72874C17.5343 4.55298 8.63959 12.3924 8.63959 12.3924C8.63959 12.3924 8.60598 12.4348 8.58459 12.4833L8.57237 12.4772L8.10793 17.3651C8.10793 17.3651 7.91237 18.8621 9.42487 17.3651C10.4913 16.3075 11.521 15.4257 12.0374 14.9954C13.7454 16.1651 15.5849 17.459 16.3763 18.1348C16.7735 18.4742 17.1096 18.5287 17.3815 18.5196C18.1332 18.4924 18.344 17.6712 18.344 17.6712C18.344 17.6712 21.8579 3.64995 21.974 1.77116C21.9863 1.58632 22.0015 1.47116 22.0015 1.34389C22.0015 1.16813 21.9863 0.992377 21.9588 0.907528V0.910559Z" fill="white"/>
</g>
<defs>
<clipPath id="clip0_1_147">
<rect width="22" height="18" fill="white" transform="translate(0 0.523438)"/>
</clipPath>
</defs>
</svg>
