<svg width="18" height="19" viewBox="0 0 18 19" fill="none" xmlns="http://www.w3.org/2000/svg">
<g clip-path="url(#clip0_1_23)">
<path d="M17.6711 9.3508C17.6711 4.47776 13.7126 0.523666 8.83512 0.523666C3.95766 0.523666 -0.000854492 4.47776 -0.000854492 9.3508C-0.000854492 12.0347 1.21851 14.4536 3.12708 16.0772C3.14475 16.0949 3.16242 16.0949 3.16242 16.1125C3.32147 16.2362 3.48052 16.3599 3.65724 16.4836C3.7456 16.5367 3.81628 16.6062 3.90464 16.6769C5.36486 17.667 7.08859 18.196 8.85279 18.1956C10.617 18.196 12.3407 17.667 13.8009 16.6769C13.8893 16.6239 13.96 16.5543 14.0483 16.5002C14.2074 16.3776 14.3841 16.2539 14.5432 16.1302C14.5608 16.1125 14.5785 16.1125 14.5785 16.0949C16.4517 14.4525 17.6711 12.0347 17.6711 9.3508ZM8.83512 17.0834C7.17395 17.0834 5.65417 16.5532 4.39946 15.6707C4.41713 15.5294 4.45248 15.3891 4.48782 15.2477C4.59312 14.8646 4.74756 14.4967 4.94729 14.1532C5.14168 13.8174 5.37142 13.517 5.65417 13.2519C5.91925 12.9868 6.23734 12.7405 6.55544 12.5461C6.8912 12.3517 7.24464 12.2103 7.63342 12.1043C8.02523 11.9987 8.42933 11.9456 8.83512 11.9464C10.0397 11.9378 11.2001 12.3999 12.0691 13.2342C12.4755 13.6407 12.7936 14.1178 13.0234 14.6645C13.1471 14.9826 13.2354 15.3184 13.2884 15.6707C11.9842 16.5876 10.4294 17.0809 8.83512 17.0834ZM6.13131 8.91011C5.9756 8.5536 5.8973 8.16811 5.90157 7.7791C5.90157 7.39142 5.97226 7.00264 6.13131 6.6492C6.29036 6.29576 6.50242 5.97877 6.7675 5.71369C7.03258 5.44862 7.35067 5.23766 7.70411 5.07861C8.05755 4.91956 8.44633 4.84887 8.83512 4.84887C9.24157 4.84887 9.61268 4.91956 9.96612 5.07861C10.3196 5.23766 10.6377 5.44972 10.9027 5.71369C11.1678 5.97877 11.3799 6.29687 11.5389 6.6492C11.698 7.00264 11.7687 7.39142 11.7687 7.7791C11.7687 8.18556 11.698 8.55667 11.5389 8.909C11.3854 9.25721 11.1699 9.57459 10.9027 9.84562C10.6316 10.1123 10.3142 10.3275 9.96612 10.4807C9.23586 10.7808 8.4167 10.7808 7.68644 10.4807C7.33832 10.3275 7.02095 10.1123 6.74983 9.84562C6.48233 9.57854 6.2719 9.26099 6.13131 8.91011ZM14.3311 14.7706C14.3311 14.7352 14.3134 14.7175 14.3134 14.6822C14.1396 14.1293 13.8834 13.6058 13.5535 13.1293C13.2233 12.6492 12.8175 12.2259 12.3518 11.8757C11.9962 11.6081 11.6107 11.3828 11.2032 11.2041C11.3886 11.0818 11.5604 10.94 11.7156 10.7811C11.9791 10.521 12.2105 10.2303 12.4048 9.9152C12.7962 9.27217 12.9984 8.53181 12.988 7.7791C12.9935 7.2219 12.8853 6.66944 12.6699 6.15549C12.4573 5.66028 12.1513 5.21066 11.7687 4.8312C11.3865 4.45571 10.9368 4.1559 10.4433 3.9476C9.92846 3.73266 9.37528 3.62481 8.81744 3.63061C8.25953 3.62516 7.70635 3.73339 7.19163 3.94871C6.69378 4.15656 6.24298 4.46273 5.86623 4.84887C5.49075 5.23057 5.19093 5.67992 4.98263 6.17316C4.76731 6.68711 4.65907 7.23957 4.66454 7.79677C4.66454 8.18556 4.71755 8.55667 4.82359 8.909C4.92962 9.28011 5.07099 9.61588 5.26538 9.93287C5.4421 10.251 5.68951 10.5337 5.95459 10.7988C6.11364 10.9578 6.29036 11.0981 6.48475 11.2218C6.0759 11.4052 5.69031 11.6366 5.33607 11.911C4.8766 12.2645 4.47015 12.6875 4.13438 13.147C3.80111 13.6215 3.54467 14.1455 3.37449 14.6999C3.35681 14.7352 3.35681 14.7706 3.35681 14.7882C1.96073 13.3756 1.09481 11.4692 1.09481 9.3508C1.09481 5.09628 4.57618 1.61822 8.83512 1.61822C13.0941 1.61822 16.5754 5.09628 16.5754 9.3508C16.5731 11.383 15.7662 13.3317 14.3311 14.7706Z" fill="white"/>
</g>
<defs>
<clipPath id="clip0_1_23">
<rect width="17.6719" height="17.6719" fill="white" transform="translate(-0.000854492 0.523666)"/>
</clipPath>
</defs>
</svg>
