<svg width="14" height="15" viewBox="0 0 14 15" fill="none" xmlns="http://www.w3.org/2000/svg">
<g clip-path="url(#clip0_2_147)">
<path d="M14 7.52349C14 3.66299 10.864 0.530487 7 0.530487C3.136 0.530487 0 3.66299 0 7.52349C0 9.64974 0.966 11.566 2.478 12.8522C2.492 12.8662 2.506 12.8662 2.506 12.8802C2.632 12.9782 2.758 13.0762 2.898 13.1742C2.968 13.2162 3.024 13.2714 3.094 13.3274C4.25081 14.1117 5.61637 14.5308 7.014 14.5305C8.41163 14.5308 9.77719 14.1117 10.934 13.3274C11.004 13.2854 11.06 13.2302 11.13 13.1874C11.256 13.0902 11.396 12.9922 11.522 12.8942C11.536 12.8802 11.55 12.8802 11.55 12.8662C13.034 11.5651 14 9.64974 14 7.52349ZM7 13.6494C5.684 13.6494 4.48 13.2294 3.486 12.5302C3.5 12.4182 3.528 12.3071 3.556 12.1951C3.63942 11.8916 3.76177 11.6001 3.92 11.328C4.074 11.062 4.256 10.824 4.48 10.614C4.69 10.404 4.942 10.2089 5.194 10.0549C5.46 9.90086 5.74 9.78886 6.048 9.70486C6.3584 9.6212 6.67853 9.57912 7 9.57974C7.95432 9.57298 8.87357 9.93905 9.562 10.6C9.884 10.922 10.136 11.3 10.318 11.7331C10.416 11.9851 10.486 12.2511 10.528 12.5302C9.49478 13.2566 8.263 13.6474 7 13.6494ZM4.858 7.17436C4.73464 6.89193 4.67261 6.58654 4.676 6.27836C4.676 5.97124 4.732 5.66324 4.858 5.38324C4.984 5.10324 5.152 4.85211 5.362 4.64211C5.572 4.43211 5.824 4.26499 6.104 4.13899C6.384 4.01299 6.692 3.95699 7 3.95699C7.322 3.95699 7.616 4.01299 7.896 4.13899C8.176 4.26499 8.428 4.43299 8.638 4.64211C8.848 4.85211 9.016 5.10411 9.142 5.38324C9.268 5.66324 9.324 5.97124 9.324 6.27836C9.324 6.60036 9.268 6.89436 9.142 7.17349C9.0204 7.44934 8.84962 7.70077 8.638 7.91549C8.42321 8.12679 8.17179 8.29727 7.896 8.41861C7.31747 8.65636 6.66853 8.65636 6.09 8.41861C5.81421 8.29727 5.56279 8.12679 5.348 7.91549C5.13609 7.7039 4.96938 7.45234 4.858 7.17436ZM11.354 11.8171C11.354 11.7891 11.34 11.7751 11.34 11.7471C11.2023 11.3091 10.9994 10.8944 10.738 10.5169C10.4764 10.1366 10.1549 9.80118 9.786 9.52374C9.50427 9.31179 9.19889 9.13327 8.876 8.99174C9.0229 8.89483 9.159 8.78248 9.282 8.65661C9.49072 8.45055 9.67403 8.22025 9.828 7.97061C10.1381 7.46119 10.2982 6.87467 10.29 6.27836C10.2943 5.83694 10.2086 5.39927 10.038 4.99211C9.86958 4.5998 9.62716 4.2436 9.324 3.94299C9.02129 3.64551 8.66502 3.408 8.274 3.24299C7.86617 3.07271 7.42793 2.98726 6.986 2.99186C6.54401 2.98754 6.10577 3.07328 5.698 3.24386C5.3036 3.40853 4.94647 3.65107 4.648 3.95699C4.35054 4.25938 4.11302 4.61535 3.948 5.00611C3.77742 5.41327 3.69167 5.85094 3.696 6.29236C3.696 6.60036 3.738 6.89436 3.822 7.17349C3.906 7.46749 4.018 7.73349 4.172 7.98461C4.312 8.23661 4.508 8.46061 4.718 8.67061C4.844 8.79661 4.984 8.90774 5.138 9.00574C4.81411 9.15104 4.50863 9.33433 4.228 9.55174C3.864 9.83174 3.542 10.1669 3.276 10.5309C3.01198 10.9068 2.80882 11.322 2.674 11.7611C2.66 11.7891 2.66 11.8171 2.66 11.8311C1.554 10.712 0.868 9.20174 0.868 7.52349C0.868 4.15299 3.626 1.39761 7 1.39761C10.374 1.39761 13.132 4.15299 13.132 7.52349C13.1302 9.13345 12.4909 10.6772 11.354 11.8171Z" fill="#575757"/>
</g>
<defs>
<clipPath id="clip0_2_147">
<rect width="14" height="14" fill="white" transform="translate(0 0.530487)"/>
</clipPath>
</defs>
</svg>
