<svg width="32" height="19" viewBox="0 0 32 19" fill="none" xmlns="http://www.w3.org/2000/svg">
<path d="M31.8661 1.64661C31.901 1.70261 31.9358 1.7555 31.9706 1.81151C32.0212 2.18175 31.9579 2.53021 31.8029 2.87245C31.6953 3.11202 31.5877 3.35159 31.4832 3.59427C31.4294 3.66583 31.3915 3.74361 31.363 3.83073C31.0908 4.3192 30.749 4.76722 30.4579 5.24325C30.4136 5.26814 30.4104 5.31169 30.4104 5.35525C30.3471 5.44859 30.2522 5.51082 30.1921 5.61349C30.1035 5.76594 29.9927 5.90595 29.8819 6.04596C29.6478 6.34153 29.4231 6.6371 29.2142 6.94823C29.1098 7.08201 29.0085 7.2158 28.9041 7.35269C28.6921 7.61093 28.4769 7.86605 28.2648 8.12429C28.1667 8.32963 27.999 8.49142 27.8724 8.6781C27.806 8.77766 27.7142 8.85544 27.6604 8.96433C27.442 9.21323 27.2553 9.47769 27.0876 9.76393C26.9673 9.96928 26.8598 10.1684 26.8028 10.3986C26.768 10.4422 26.787 10.492 26.787 10.5418C26.7237 10.6413 26.7965 10.744 26.7838 10.8467C26.7743 10.912 26.7965 10.9773 26.8218 11.0364C26.9357 11.2947 27.0781 11.5374 27.2901 11.7303C27.5022 11.9232 27.6794 12.1472 27.8946 12.337C28.2332 12.6356 28.5528 12.953 28.8819 13.2641C29.056 13.4352 29.2332 13.6064 29.4073 13.7806C29.5528 13.9237 29.6952 14.0699 29.8408 14.2131C29.9516 14.3251 30.0813 14.4215 30.1699 14.5491C30.2649 14.686 30.3851 14.7949 30.5054 14.9038C30.5117 14.91 30.5212 14.9193 30.5275 14.9255C30.5339 14.9349 30.5433 14.9442 30.5497 14.9504C30.5782 14.9847 30.6035 15.0158 30.632 15.05C30.6794 15.1651 30.7902 15.2273 30.863 15.3207C31.0971 15.6131 31.3187 15.918 31.5244 16.2323C31.6288 16.391 31.7301 16.5527 31.8155 16.7239C31.9105 16.9136 31.9643 17.1065 31.9927 17.3181C32.0149 17.4923 31.9864 17.6261 31.9073 17.7692C31.7554 18.043 31.4864 18.1706 31.2142 18.2795C31.018 18.3573 30.8187 18.4351 30.6003 18.4288C30.3661 18.4288 30.1288 18.4288 29.8946 18.4257C29.825 18.4257 29.7554 18.4288 29.6952 18.4693C29.6414 18.4817 29.5845 18.4413 29.5275 18.4755C29.5212 18.4755 29.5117 18.4786 29.5054 18.4817C28.8218 18.4693 28.1382 18.4693 27.4547 18.4817C27.3534 18.5066 27.2427 18.4848 27.1414 18.5191H26.0939C26.0686 18.5222 26.0464 18.5222 26.0211 18.5222C25.7964 18.5315 25.5813 18.488 25.3692 18.4257C24.7933 18.2608 24.2553 18.0244 23.8154 17.6106C23.5559 17.3648 23.2648 17.1563 23.0148 16.9012C22.9578 16.7954 22.8977 16.6927 22.7932 16.6212C22.6002 16.3972 22.4103 16.1701 22.2141 15.9492C22.0654 15.7843 21.9072 15.6287 21.7552 15.4669C21.7299 15.4451 21.7078 15.4202 21.6825 15.3985C21.4641 15.1776 21.2552 14.9473 21.0211 14.742C20.8185 14.5646 20.597 14.3997 20.3217 14.3375C20.2932 14.3126 20.2616 14.3002 20.2236 14.3002C19.9673 14.2877 19.7394 14.35 19.5337 14.5117C19.4356 14.5895 19.3786 14.686 19.2995 14.7762C19.2267 14.8602 19.1634 14.9442 19.135 15.05C19.0242 15.2398 18.9419 15.4389 18.8976 15.6598C18.8058 16.1358 18.6982 16.6087 18.7236 17.0972C18.7394 17.4021 18.6413 17.679 18.5274 17.9528C18.4989 18.0213 18.4577 18.0897 18.3944 18.1426C18.1982 18.3044 17.9546 18.3573 17.7204 18.432C17.6096 18.432 17.4957 18.432 17.3849 18.4351C17.3691 18.4351 17.3533 18.4351 17.3375 18.4351C16.9261 18.4351 16.5115 18.4351 16.1001 18.4351C16.0843 18.4351 16.0685 18.4351 16.0526 18.4351C15.6539 18.4351 15.2552 18.4351 14.8596 18.4351C14.6571 18.4102 14.4545 18.3791 14.2551 18.3417C13.9039 18.2702 13.5399 18.2546 13.2013 18.1146C13.1634 18.099 13.1159 18.1053 13.0716 18.1022C12.9039 18.0493 12.7361 17.9964 12.5684 17.9466C12.5051 17.9217 12.445 17.8906 12.3817 17.875C12.0463 17.791 11.7393 17.6292 11.4133 17.5141C10.9703 17.3586 10.5779 17.0941 10.1791 16.8514C9.97028 16.7239 9.7804 16.5745 9.56204 16.4625C9.51141 16.3847 9.4323 16.3474 9.35002 16.3194C9.33736 16.2727 9.29622 16.2541 9.25824 16.2354C9.13482 16.1669 9.0209 16.0767 8.9228 15.9834C8.60001 15.6754 8.23608 15.414 7.91645 15.1029C7.89114 15.0811 7.86898 15.0562 7.84367 15.0344C7.73291 14.91 7.581 14.8166 7.48923 14.686C7.3405 14.4775 7.15695 14.2971 6.99872 14.0979C6.89112 13.9642 6.79302 13.8241 6.65061 13.7215C6.63479 13.6686 6.59365 13.6406 6.55251 13.6064C6.45124 13.4788 6.33732 13.3575 6.25187 13.2206C6.0525 12.9032 5.80883 12.6201 5.59364 12.3152C5.543 12.1627 5.4006 12.0849 5.31199 11.9636C5.25502 11.8796 5.19806 11.7987 5.1411 11.7147C4.9354 11.4222 4.74236 11.1236 4.56514 10.8155C4.50818 10.6506 4.39109 10.5231 4.28349 10.3924C4.16957 10.2306 4.07463 10.0564 3.9702 9.88838C3.78032 9.57726 3.58095 9.27235 3.41956 8.94567C3.32778 8.75899 3.18537 8.60654 3.0936 8.42297C3.0493 8.28919 2.98917 8.16162 2.90689 8.04651C2.81512 7.89094 2.71068 7.73849 2.62841 7.5767C2.49233 7.30291 2.34676 7.03223 2.18536 6.77399C2.06827 6.58421 1.97017 6.3882 1.8689 6.19218C1.71384 5.89661 1.55877 5.60104 1.40054 5.30547C1.40054 5.24013 1.36573 5.19035 1.32775 5.14368C1.16003 4.817 0.992306 4.48721 0.827747 4.16052C0.821418 4.10141 0.849899 4.03607 0.783443 3.99251C0.783443 3.94895 0.761291 3.91162 0.739138 3.87428C0.612554 3.66272 0.511287 3.44182 0.406855 3.22092C0.32774 3.05913 0.258119 2.89112 0.185333 2.72622C0.17584 2.63911 0.128371 2.57066 0.0872307 2.49599C0.0271033 2.2782 -0.0266949 2.06041 0.0144449 1.83017C0.0365971 1.70261 0.112548 1.62172 0.21065 1.55327C0.337234 1.46304 0.48597 1.4226 0.641036 1.3946C0.739138 1.3946 0.837241 1.37593 0.935344 1.37282C1.77396 1.34481 2.61258 1.41326 3.44804 1.32615C3.77399 1.29192 4.10627 1.31681 4.43539 1.31681C4.82464 1.31681 5.21388 1.31681 5.60313 1.31681H5.61262H5.62212C5.87529 1.40082 6.14111 1.44749 6.35947 1.61238C6.48605 1.68706 6.562 1.80217 6.63162 1.92973C6.7234 2.10086 6.7772 2.28753 6.88796 2.44932C7.03669 2.86623 7.24556 3.25825 7.41328 3.66894C7.44809 3.7685 7.49556 3.86184 7.55569 3.94895C7.56518 4.01429 7.61582 4.05785 7.6443 4.11074C7.90379 4.60854 8.11899 5.12813 8.44494 5.59171C8.48608 5.7006 8.51456 5.81572 8.60317 5.89973C8.64431 6.0304 8.77722 6.09574 8.82153 6.22952C8.85634 6.33842 8.92912 6.42864 8.99242 6.52198C9.09685 6.68066 9.19812 6.83933 9.30255 6.99801C9.31521 7.02912 9.3247 7.06645 9.34052 7.09446C9.52407 7.38692 9.72027 7.67315 9.9418 7.93761C10.0336 8.09318 10.1348 8.24252 10.2772 8.36075C10.2867 8.41364 10.3121 8.45408 10.35 8.48831C10.4133 8.54742 10.4766 8.60343 10.5336 8.66876C10.7013 8.871 10.8975 9.03589 11.1127 9.18212C11.2519 9.26613 11.4038 9.32524 11.5589 9.3408C11.8532 9.3688 12.0494 9.22257 12.1918 8.97367C12.3469 8.70921 12.3754 8.41053 12.464 8.1274C12.4766 7.97806 12.5083 7.83183 12.5304 7.68249C12.5811 7.3838 12.5558 7.08201 12.6064 6.78644V5.61349C12.6475 5.58238 12.6475 5.55126 12.6064 5.52326C12.6064 5.42992 12.6064 5.33347 12.6032 5.24013C12.6096 5.16546 12.619 5.09079 12.5969 5.01923C12.5716 4.89789 12.5558 4.77655 12.5621 4.6521C12.5684 4.52765 12.5621 4.4032 12.5558 4.28186C12.5526 4.17919 12.5842 4.07341 12.5368 3.97384C12.5241 3.87739 12.502 3.78406 12.4988 3.68761C12.4861 3.47293 12.388 3.28003 12.3596 3.06846C12.3311 2.86312 12.233 2.67022 12.0969 2.51777C11.8501 2.24709 11.5621 2.02618 11.1823 1.95463C11.0209 1.92351 10.8754 1.8364 10.7045 1.83951C10.5716 1.84262 10.5589 1.81462 10.6064 1.68394C10.7013 1.43193 10.8912 1.26081 11.1064 1.11147C11.2235 0.996352 11.3785 0.94346 11.5114 0.856344C11.6665 0.828343 11.8184 0.784785 11.9671 0.741227C12.3469 0.62611 12.7456 0.632332 13.1317 0.566995C13.157 0.566995 13.1792 0.566995 13.2045 0.566995C13.2203 0.566995 13.2361 0.566995 13.252 0.563884C13.2615 0.563884 13.271 0.557662 13.2804 0.55455C13.5779 0.507881 13.8786 0.538994 14.1792 0.523438C14.3058 0.523438 14.4355 0.523438 14.5621 0.523438C14.7298 0.523438 14.8944 0.526549 15.0621 0.526549C15.5969 0.526549 16.1286 0.510992 16.6602 0.582552C16.8691 0.641666 17.0938 0.610553 17.3027 0.672779C17.3216 0.679001 17.3375 0.688335 17.3565 0.691446C17.7204 0.750561 18.0685 0.840788 18.3533 1.0928C18.3755 1.21725 18.4989 1.27948 18.5432 1.38837C18.6001 1.52838 18.6444 1.67461 18.6951 1.81773C18.7172 2.00752 18.7552 2.1973 18.7615 2.3902C18.771 2.75111 18.7615 3.11202 18.7615 3.47604C18.7615 3.59738 18.7172 3.71561 18.7362 3.84006L18.7267 3.84939V3.85873C18.7046 3.91162 18.7172 3.96451 18.7141 4.02051C18.7014 4.33786 18.7425 4.65521 18.6888 4.96945C18.6698 4.98812 18.6698 5.0099 18.6793 5.03168C18.6793 5.05035 18.6793 5.0659 18.6761 5.08457C18.6761 5.10013 18.6761 5.11257 18.6761 5.12813C18.6761 5.15302 18.6761 5.1748 18.6761 5.19969C18.6761 5.36459 18.6761 5.52637 18.6761 5.69127C18.6761 6.03662 18.6761 6.37886 18.6761 6.72421C18.6761 6.78644 18.6761 6.84866 18.6761 6.914C18.6761 7.13179 18.6761 7.34958 18.6761 7.57048C18.6761 7.70427 18.6761 7.83805 18.6761 7.97184C18.7046 8.05584 18.7109 8.14296 18.7236 8.23007C18.7457 8.38875 18.7457 8.55676 18.8407 8.69987C18.8976 8.90833 19.04 9.06701 19.1888 9.21012C19.2742 9.29102 19.4071 9.38124 19.5274 9.34702C19.7774 9.27546 20.0337 9.19146 20.2014 8.96744C20.3343 8.899 20.4419 8.80255 20.5337 8.69054C20.7362 8.44475 20.9768 8.22696 21.1413 7.95006C21.2141 7.9065 21.2331 7.82561 21.2869 7.7696C21.4863 7.55181 21.6223 7.29047 21.7996 7.05712C21.8534 6.97623 21.9293 6.90778 21.9451 6.80511C22.1097 6.68377 22.1635 6.49087 22.2647 6.32908C22.423 6.07396 22.6002 5.82817 22.7236 5.55437C22.7806 5.45481 22.8217 5.34592 22.8913 5.24947C23.0591 5.01612 23.1667 4.75166 23.3027 4.49965C23.4008 4.34098 23.4768 4.17297 23.5591 4.00496C23.7933 3.48226 24.0274 2.96268 24.2616 2.43998C24.3502 2.17864 24.4736 1.93285 24.5939 1.68394C24.6255 1.65905 24.6572 1.63727 24.6857 1.61238C24.8692 1.46304 25.0718 1.36659 25.3186 1.37593C25.5528 1.38526 25.787 1.37593 26.0211 1.37593C26.499 1.37593 26.9768 1.37593 27.4547 1.37593C27.9326 1.37593 28.4072 1.37593 28.8851 1.37593C29.325 1.37593 29.7649 1.37593 30.2079 1.37593C30.268 1.37593 30.3282 1.38215 30.3851 1.36037C30.5054 1.35415 30.6225 1.31681 30.7459 1.32615C30.8408 1.33237 30.9294 1.37282 31.0212 1.37282C31.3472 1.36659 31.632 1.45371 31.8693 1.68083L31.8661 1.64661Z" fill="white"/>
</svg>
